<svg width="23" height="23" viewBox="0 0 23 23" fill="none" xmlns="http://www.w3.org/2000/svg">
    <path d="M11.5 14.38C10.59 14.38 9.85001 13.64 9.85001 12.73V10.26C9.85001 9.35 10.59 8.61 11.5 8.61C12.41 8.61 13.15 9.35 13.15 10.26V12.73C13.15 13.64 12.41 14.38 11.5 14.38Z" stroke="#567DF4" stroke-width="1.5" stroke-linecap="round"/>
    <path d="M16.48 12.97C16.28 15.55 14.12 17.57 11.5 17.57C8.74 17.57 6.5 15.33 6.5 12.57V10.43C6.5 7.66999 8.74 5.42999 11.5 5.42999C14.09 5.42999 16.22 7.39999 16.47 9.91999" stroke="#567DF4" stroke-width="1.5" stroke-linecap="round"/>
    <path d="M14.5 1.5H16.5C19.5 1.5 21.5 3.5 21.5 6.5V8.5M1.5 8.5V6.5C1.5 3.5 3.5 1.5 6.5 1.5H8.5M14.5 21.5H16.5C19.5 21.5 21.5 19.5 21.5 16.5V14.5M1.5 14.5V16.5C1.5 19.5 3.5 21.5 6.5 21.5H8.5" stroke="#567DF4" stroke-width="1.5" stroke-miterlimit="10" stroke-linecap="round" stroke-linejoin="round"/>
</svg>

